<svg version="1.0" xmlns="http://www.w3.org/2000/svg" width="2684" height="2684" viewBox="0 0 2013 2013"><path d="M455 1006v407h442v-83H567V599H455v407z"/><path d="M827.1 604c-15.4 4.4-30.3 14.6-36.4 25-6.1 10.5-5.7-12.8-5.7 320.7V1254h112v-163h109v-83H897V684h218v731l193.3-.2 193.2-.3 9-2.8c25.9-8.1 40.8-22.2 45.1-42.8 1.2-5.9 1.4-57.2 1.2-367.6l-.3-360.8-3.6-7.5c-7.6-15.8-22.4-25.6-44.5-29.5-7.2-1.3-22.2-1.5-90.5-1.5H1336v80h109v650h-218V989.7c0-380.9.7-345.8-6.8-360.2-4.6-8.7-12.1-16.2-21-20.8-13.5-7.1-.9-6.7-192.7-6.6-164.8 0-173.3.1-179.4 1.9z"/></svg>