<svg width="23" height="23" fill="none" xmlns="http://www.w3.org/2000/svg"><path d="M16.873 22c-4.384 0-8.327-1.812-11.2-4.687C2.798 14.44 1 10.508 1 6.122c0-.922.41-1.748 1.05-2.311l2.502-2.382A1.5 1.5 0 015.608 1c.532 0 .999.269 1.274.679l2.541 3.553c.18.25.282.557.282.89 0 .455-.205.87-.519 1.152L7.151 9.067c-.282.282-.519.679-.519 1.152-.006 1.127.832 2.677 2.151 3.996s2.867 2.157 3.994 2.15c.467 0 .87-.236 1.152-.518l1.798-2.03c.282-.32.692-.518 1.153-.518.332 0 .633.103.89.282l3.552 2.542a1.53 1.53 0 01.256 2.33l-2.381 2.503A3.139 3.139 0 0116.873 22z" stroke="#fff" stroke-miterlimit="10"/></svg>