<svg width="21" height="16" viewBox="0 0 21 16" fill="none" xmlns="http://www.w3.org/2000/svg">
<path d="M17.3789 0C18.2077 0 19.0026 0.320798 19.5886 0.891822C20.1747 1.46285 20.5039 2.23732 20.5039 3.04487V12.7885C20.5039 13.596 20.1747 14.3705 19.5886 14.9415C19.0026 15.5125 18.2077 15.8333 17.3789 15.8333H3.62891C2.8001 15.8333 2.00525 15.5125 1.4192 14.9415C0.833146 14.3705 0.503906 13.596 0.503906 12.7885V3.04487C0.503906 2.23732 0.833146 1.46285 1.4192 0.891822C2.00525 0.320798 2.8001 0 3.62891 0H17.3789ZM19.2539 4.82429L10.8214 9.65955C10.7417 9.70516 10.6526 9.73296 10.5605 9.74097C10.4684 9.74897 10.3757 9.73697 10.2889 9.70583L10.1864 9.65955L1.75391 4.82673V12.7885C1.75391 13.273 1.95145 13.7377 2.30308 14.0803C2.65471 14.4229 3.13163 14.6154 3.62891 14.6154H17.3789C17.8762 14.6154 18.3531 14.4229 18.7047 14.0803C19.0564 13.7377 19.2539 13.273 19.2539 12.7885V4.82429ZM17.3789 1.21795H3.62891C3.13163 1.21795 2.65471 1.41043 2.30308 1.75304C1.95145 2.09566 1.75391 2.56034 1.75391 3.04487V3.41269L10.5039 8.4282L19.2539 3.41026V3.04487C19.2539 2.56034 19.0564 2.09566 18.7047 1.75304C18.3531 1.41043 17.8762 1.21795 17.3789 1.21795Z" fill="#393246"/>
</svg>
