<svg width="24" height="24" viewBox="0 0 24 24" fill="none" xmlns="http://www.w3.org/2000/svg">
<path d="M17.4152 22.3333C13.0657 22.3333 9.15425 20.5358 6.30324 17.6839C3.45223 14.8321 1.66797 10.9322 1.66797 6.5813C1.66797 5.66667 2.07435 4.84731 2.70932 4.28836L5.19205 1.92556C5.46508 1.65879 5.83337 1.5 6.23975 1.5C6.76677 1.5 7.2303 1.76677 7.50333 2.17327L10.0242 5.69843C10.202 5.94614 10.3035 6.25102 10.3035 6.5813C10.3035 7.03227 10.1004 7.44512 9.78922 7.72459L7.77002 9.50305C7.49063 9.78252 7.2557 10.1763 7.2557 10.6463C7.24935 11.7642 8.08116 13.3013 9.38919 14.6098C10.6972 15.9182 12.2339 16.7503 13.3514 16.7439C13.8149 16.7439 14.215 16.5089 14.4943 16.2294L16.2786 14.216C16.558 13.8984 16.9644 13.7015 17.4216 13.7015C17.7517 13.7015 18.0502 13.8031 18.3042 13.9809L21.8282 16.5025C22.2346 16.7757 22.5013 17.2393 22.5013 17.7665C22.5013 18.173 22.3426 18.5414 22.0822 18.8145L19.7201 21.298C19.1487 21.9268 18.3296 22.3333 17.4152 22.3333Z" stroke="#393246" stroke-width="1.5" stroke-miterlimit="10"/>
</svg>
