<svg width="21" height="21" fill="none" xmlns="http://www.w3.org/2000/svg"><path d="M16.712 21c.846 0 1.598-.35 2.254-1.048.695-.74 1.042-1.637 1.042-2.692 0-1.055-.347-1.952-1.042-2.691L8.076 2.27C7.52 1.665 6.88 1.276 6.154 1.1c-.726-.174-1.462-.127-2.207.142-.745.269-1.433.732-2.064 1.391-.202.229-.388.48-.559.756-.17.276-.31.565-.417.867a6.036 6.036 0 00-.331 1.966c.025 1.425.48 2.614 1.364 3.568l8.238 9.315a.557.557 0 00.843.04.653.653 0 00.19-.453.673.673 0 00-.162-.474L2.812 8.903c-.67-.726-1.01-1.626-1.023-2.701-.013-1.076.31-1.956.966-2.642.404-.443.852-.78 1.345-1.008a2.775 2.775 0 011.59-.221c.569.08 1.074.356 1.516.826l10.89 12.299c.467.497.7 1.095.7 1.794 0 .699-.233 1.297-.7 1.794-.215.229-.448.4-.7.514a1.538 1.538 0 01-.796.131c-.556-.026-1.074-.302-1.553-.826L6.39 9.065a2.813 2.813 0 01-.36-.474 1.487 1.487 0 01-.151-.323 1.67 1.67 0 01-.076-.343.706.706 0 01.057-.352 1.13 1.13 0 01.227-.343c.24-.269.474-.39.701-.363.24.027.511.195.815.504l6.515 7.379c.075.08.164.138.265.171a.55.55 0 00.312.01.554.554 0 00.275-.16.59.59 0 00.19-.444.698.698 0 00-.171-.464l-6.515-7.4c-.518-.537-1.042-.833-1.572-.886-.606-.054-1.162.188-1.667.725-.48.498-.691 1.082-.634 1.754.056.673.363 1.304.918 1.896l8.655 9.818c.708.753 1.497 1.156 2.368 1.21a.39.39 0 01.085.01c.032.007.06.01.085.01z" fill="#393246"/></svg>