<svg width="24" height="23" fill="none" xmlns="http://www.w3.org/2000/svg"><path d="M17.604 22c-4.386 0-8.331-1.812-11.207-4.687-2.875-2.874-4.674-6.805-4.674-11.191 0-.922.41-1.748 1.05-2.311l2.504-2.382A1.502 1.502 0 016.333 1c.532 0 1 .269 1.275.679l2.542 3.553c.18.25.282.557.282.89 0 .455-.205.87-.519 1.152L7.877 9.067c-.282.282-.519.679-.519 1.152-.006 1.127.833 2.677 2.152 3.996 1.319 1.319 2.869 2.157 3.996 2.15.467 0 .87-.236 1.152-.518l1.8-2.03c.282-.32.692-.518 1.152-.518.334 0 .634.103.89.282l3.555 2.542a1.53 1.53 0 01.256 2.33l-2.382 2.503A3.14 3.14 0 0117.604 22z" stroke="#393246" stroke-width="1.5" stroke-miterlimit="10"/></svg>