<svg width="21" height="16" fill="none" xmlns="http://www.w3.org/2000/svg"><path d="M17.379 0c.829 0 1.624.32 2.21.892.586.57.915 1.345.915 2.153v9.744c0 .807-.33 1.582-.915 2.152a3.167 3.167 0 01-2.21.892H3.629c-.829 0-1.624-.32-2.21-.892a3.006 3.006 0 01-.915-2.152V3.045c0-.808.33-1.582.915-2.153A3.167 3.167 0 013.63 0h13.75zm1.875 4.824L10.82 9.66a.636.636 0 01-.532.046l-.103-.046-8.432-4.833v7.962c0 .484.197.949.55 1.291a1.9 1.9 0 001.325.535h13.75a1.9 1.9 0 001.326-.535c.351-.342.549-.807.549-1.291V4.824zm-1.875-3.606H3.629a1.9 1.9 0 00-1.326.535c-.352.343-.55.807-.55 1.292v.368l8.75 5.015 8.75-5.018v-.365c0-.485-.197-.95-.548-1.292a1.9 1.9 0 00-1.326-.535z" fill="#393246"/></svg>