<?xml version="1.0" standalone="no"?>
<!DOCTYPE svg PUBLIC "-//W3C//DTD SVG 20010904//EN"
 "http://www.w3.org/TR/2001/REC-SVG-20010904/DTD/svg10.dtd">
<svg version="1.0" xmlns="http://www.w3.org/2000/svg"
 width="2013.000000pt" height="2013.000000pt" viewBox="0 0 2013.000000 2013.000000"
 preserveAspectRatio="xMidYMid meet">
<metadata>
Created by potrace 1.14, written by Peter Selinger 2001-2017
</metadata>
<g transform="translate(0.000000,2013.000000) scale(0.100000,-0.100000)"
fill="#000000" stroke="none">
<path d="M4550 10070 l0 -4070 2210 0 2210 0 0 415 0 415 -1650 0 -1650 0 0
3655 0 3655 -560 0 -560 0 0 -4070z"/>
<path d="M8271 14090 c-154 -44 -303 -146 -364 -250 -61 -105 -57 128 -57
-3207 l0 -3043 560 0 560 0 0 815 0 815 545 0 545 0 0 415 0 415 -545 0 -545
0 0 1620 0 1620 1090 0 1090 0 0 -3655 0 -3655 1933 2 1932 3 90 28 c259 81
408 222 451 428 12 59 14 572 12 3676 l-3 3608 -36 75 c-76 158 -224 256 -445
295 -72 13 -222 15 -905 15 l-819 0 0 -400 0 -400 545 0 545 0 0 -3250 0
-3250 -1090 0 -1090 0 0 3423 c0 3809 7 3458 -68 3602 -46 87 -121 162 -210
208 -135 71 -9 67 -1927 66 -1648 0 -1733 -1 -1794 -19z"/>
</g>
</svg>
