<svg width="24" height="23" viewBox="0 0 24 23" fill="none" xmlns="http://www.w3.org/2000/svg">
<path d="M17.6041 22C13.2175 22 9.27276 20.1881 6.39745 17.3134C3.52213 14.4387 1.72266 10.5076 1.72266 6.12195C1.72266 5.2 2.1325 4.37409 2.77288 3.81067L5.27678 1.42896C5.55214 1.16006 5.92356 1 6.33341 1C6.86492 1 7.3324 1.2689 7.60777 1.67866L10.1501 5.23201C10.3294 5.48171 10.4319 5.78902 10.4319 6.12195C10.4319 6.57652 10.2269 6.99268 9.91314 7.27439L7.87673 9.06707C7.59496 9.34878 7.35802 9.74573 7.35802 10.2195C7.35161 11.3463 8.19052 12.8957 9.5097 14.2146C10.8289 15.5335 12.3786 16.3723 13.5057 16.3659C13.9732 16.3659 14.3766 16.129 14.6584 15.8473L16.4578 13.8177C16.7396 13.4976 17.1495 13.2991 17.6105 13.2991C17.9435 13.2991 18.2445 13.4015 18.5007 13.5808L22.0548 16.1226C22.4646 16.3979 22.7336 16.8652 22.7336 17.3966C22.7336 17.8064 22.5735 18.1777 22.3109 18.453L19.9287 20.9564C19.3524 21.5902 18.5263 22 17.6041 22Z" stroke="#393246" stroke-width="1.5" stroke-miterlimit="10"/>
</svg>
